<?xml version="1.0" encoding="UTF-8"?>
<svg width="6px" height="6px" viewBox="0 0 6 6" version="1.1" xmlns="http://www.w3.org/2000/svg" xmlns:xlink="http://www.w3.org/1999/xlink">
    <!-- Generator: Sketch 53.1 (72631) - https://sketchapp.com -->
    <title>calendar@1x</title>
    <desc>Created with Sketch.</desc>
    <g id="Page-1" stroke="none" stroke-width="1" fill="none" fill-rule="evenodd">
        <g id="v" transform="translate(-44.000000, -147.000000)" fill="#A5A5A5" fill-rule="nonzero">
            <g id="Group-2-Copy" transform="translate(28.000000, 138.000000)">
                <g id="22/09" transform="translate(16.000000, 7.000000)">
                    <g id="calendar" transform="translate(0.000000, 2.000000)">
                        <path d="M0.211886305,5.55 L5.7881137,5.55 C5.90697674,5.55 6,5.45689655 6,5.33793103 L6,0.605172414 C6,0.486206897 5.90697674,0.393103448 5.7881137,0.393103448 L4.73901809,0.393103448 L4.73901809,0.212068966 C4.73901809,0.0931034483 4.64599483,0 4.52713178,0 C4.40826873,0 4.31524548,0.0931034483 4.31524548,0.212068966 L4.31524548,0.393103448 L1.72093023,0.393103448 L1.72093023,0.212068966 C1.72093023,0.0931034483 1.62790698,0 1.50904393,0 C1.39018088,0 1.29715762,0.0931034483 1.29715762,0.212068966 L1.29715762,0.393103448 L0.211886305,0.393103448 C0.0930232558,0.393103448 0,0.486206897 0,0.605172414 L0,5.34310345 C0,5.45689655 0.0981912145,5.55 0.211886305,5.55 Z M0.42377261,0.817241379 L1.29715762,0.817241379 L1.29715762,0.931034483 C1.29715762,1.05 1.39018088,1.14310345 1.50904393,1.14310345 C1.62790698,1.14310345 1.72093023,1.05 1.72093023,0.931034483 L1.72093023,0.817241379 L4.31524548,0.817241379 L4.31524548,0.931034483 C4.31524548,1.05 4.40826873,1.14310345 4.52713178,1.14310345 C4.64599483,1.14310345 4.73901809,1.05 4.73901809,0.931034483 L4.73901809,0.817241379 L5.58139535,0.817241379 L5.58139535,1.36551724 L0.42377261,1.36551724 L0.42377261,0.817241379 L0.42377261,0.817241379 Z M0.42377261,1.78965517 L5.57622739,1.78965517 L5.57622739,5.13103448 L0.42377261,5.13103448 L0.42377261,1.78965517 Z" id="Shape"></path>
                        <path d="M4.58950893,2.85 L1.56049107,2.85 C1.44241071,2.85 1.35,2.94878049 1.35,3.075 C1.35,3.20121951 1.44241071,3.3 1.56049107,3.3 L4.58950893,3.3 C4.70758929,3.3 4.8,3.20121951 4.8,3.075 C4.8,2.94878049 4.70758929,2.85 4.58950893,2.85 Z" id="Path"></path>
                        <path d="M2.93793103,3.9 L1.41206897,3.9 C1.29310345,3.9 1.2,3.99878049 1.2,4.125 C1.2,4.25121951 1.29310345,4.35 1.41206897,4.35 L2.93793103,4.35 C3.05689655,4.35 3.15,4.25121951 3.15,4.125 C3.15,3.99878049 3.05689655,3.9 2.93793103,3.9 Z" id="Path"></path>
                    </g>
                </g>
            </g>
        </g>
    </g>
</svg>