<?xml version="1.0" encoding="UTF-8"?>
<svg width="6px" height="6px" viewBox="0 0 6 6" version="1.1" xmlns="http://www.w3.org/2000/svg" xmlns:xlink="http://www.w3.org/1999/xlink">
    <!-- Generator: Sketch 53.1 (72631) - https://sketchapp.com -->
    <title>clock (1)@1x</title>
    <desc>Created with Sketch.</desc>
    <g id="Page-1" stroke="none" stroke-width="1" fill="none" fill-rule="evenodd">
        <g id="v" transform="translate(-98.000000, -147.000000)" fill="#A5A5A5" fill-rule="nonzero">
            <g id="Group-2-Copy" transform="translate(28.000000, 138.000000)">
                <g id="13h" transform="translate(70.000000, 7.000000)">
                    <g id="clock-(1)" transform="translate(0.000000, 2.000000)">
                        <path d="M5.7605098,1.83152515 C5.44417647,1.09362003 4.90662745,0.556962646 4.16297059,0.239621753 C3.79128431,0.0810150671 3.40188235,0 2.99506863,0 C2.58832353,0 2.20179412,0.0802499411 1.83051961,0.239621753 C1.09301961,0.556119046 0.553088235,1.0924331 0.236196078,1.83152515 C0.0774019608,2.20180687 0,2.58973554 0,2.99670407 C0,3.40375108 0.0774019608,3.7948972 0.236196078,4.1652574 C0.553088235,4.90434945 1.09308824,5.44388095 1.83051961,5.76045672 C2.20186275,5.91982853 2.58831373,6 2.99506863,6 C3.40182353,6 3.79128431,5.91898493 4.16291176,5.76045672 C4.90656863,5.44310602 5.44411765,4.90309386 5.76051961,4.1652574 C5.91979412,3.79371027 6,3.40375108 6,2.99670407 C6,2.58973554 5.91986275,2.20306247 5.7605098,1.83152515 Z M5.28160784,4.32281449 C5.04610784,4.72690889 4.72348039,5.04748686 4.31714706,5.28450914 C3.91327451,5.52013851 3.4707549,5.63896845 2.99513725,5.63896845 C2.63758824,5.63896845 2.29641176,5.57006788 1.97160784,5.42890214 C1.64681373,5.28780507 1.36638235,5.10231107 1.13179412,4.86766264 C0.897205882,4.63294554 0.710490196,4.34962332 0.570872549,4.02409166 C0.431666667,3.69974692 0.364205882,3.35452798 0.364205882,2.99671388 C0.364205882,2.5207663 0.481078431,2.08024994 0.715254902,1.6772738 C0.950264706,1.27282626 1.27296078,0.951904967 1.67642157,0.715569332 C2.07981373,0.479243506 2.51946078,0.361041356 2.99506863,0.361041356 C3.4707549,0.361041356 3.91319608,0.479939967 4.31707843,0.715569332 C4.72341176,0.952601428 5.04534314,1.27351291 5.28153922,1.67726399 C5.51773529,2.0809464 5.63580392,2.5207663 5.63580392,2.99670407 C5.63580392,3.47266146 5.5185098,3.91617947 5.28160784,4.32281449 Z" id="Shape"></path>
                        <path d="M3.04427896,2.93087899 L3.04427896,1.05945594 C3.04427896,0.947470069 2.93127156,0.857142857 2.80155752,0.857142857 C2.68024681,0.857142857 2.57142857,0.947470069 2.57142857,1.05945594 L2.57142857,2.95977161 C2.57142857,2.96339938 2.57981941,2.97788888 2.57981941,2.98868582 C2.57142857,3.05372659 2.59241191,3.10791644 2.64258184,3.15130935 L3.89374151,4.23150014 C3.97746227,4.30378567 4.13224878,4.30378567 4.21590702,4.23150014 C4.31212025,4.14841768 4.30579274,4.02786983 4.21590702,3.94971077 L3.04427896,2.93087899 Z" id="Path"></path>
                    </g>
                </g>
            </g>
        </g>
    </g>
</svg>