<?xml version="1.0" encoding="UTF-8"?>
<svg width="6px" height="7px" viewBox="0 0 6 7" version="1.1" xmlns="http://www.w3.org/2000/svg" xmlns:xlink="http://www.w3.org/1999/xlink">
    <!-- Generator: Sketch 53.1 (72631) - https://sketchapp.com -->
    <title>money-bag@1x</title>
    <desc>Created with Sketch.</desc>
    <g id="Page-1" stroke="none" stroke-width="1" fill="none" fill-rule="evenodd">
        <g id="v" transform="translate(-191.000000, -146.000000)" fill="#A5A5A5" fill-rule="nonzero">
            <g id="Group-2-Copy" transform="translate(28.000000, 138.000000)">
                <g id="Total-$$" transform="translate(163.000000, 7.000000)">
                    <g id="money-bag" transform="translate(0.000000, 1.000000)">
                        <path d="M3.23421687,4.36481928 L2.83662651,4.36481928 C2.69204819,4.36481928 2.57493976,4.24771084 2.57493976,4.10313253 C2.57493976,3.95855422 2.69204819,3.84144578 2.83662651,3.84144578 L3.53638554,3.84144578 C3.63180723,3.84144578 3.70987952,3.76337349 3.70987952,3.66795181 C3.70987952,3.57253012 3.63180723,3.49445783 3.53638554,3.49445783 L3.20819277,3.49445783 L3.20819277,3.25301205 C3.20819277,3.15759036 3.13012048,3.07951807 3.0346988,3.07951807 C2.93927711,3.07951807 2.86120482,3.15759036 2.86120482,3.25301205 L2.86120482,3.49445783 L2.83662651,3.49445783 C2.50120482,3.49445783 2.22795181,3.76771084 2.22795181,4.10313253 C2.22795181,4.43855422 2.50120482,4.71180723 2.83662651,4.71180723 L3.23421687,4.71180723 C3.37879518,4.71180723 3.49590361,4.82891566 3.49590361,4.97349398 C3.49590361,5.11807229 3.37879518,5.23518072 3.23421687,5.23518072 L2.52144578,5.23518072 C2.4260241,5.23518072 2.34795181,5.31325301 2.34795181,5.4086747 C2.34795181,5.50409639 2.4260241,5.58216867 2.52144578,5.58216867 L2.8626506,5.58216867 L2.8626506,5.82939759 C2.8626506,5.92481928 2.94072289,6.00289157 3.03614458,6.00289157 C3.13156627,6.00289157 3.20963855,5.92481928 3.20963855,5.82939759 L3.20963855,5.58216867 L3.23855422,5.58216867 C3.24,5.58216867 3.24144578,5.58216867 3.24289157,5.58216867 C3.57542169,5.57783133 3.84289157,5.3060241 3.84289157,4.97349398 C3.84289157,4.63807229 3.56963855,4.36481928 3.23421687,4.36481928 Z" id="Path"></path>
                        <path d="M5.64289157,3.97156627 C5.46072289,3.55228916 5.20915663,3.1460241 4.89108434,2.76578313 C4.50650602,2.30313253 4.12337349,1.99373494 3.92819277,1.85060241 L4.66554217,0.482891566 C4.70168675,0.414939759 4.69012048,0.331084337 4.63373494,0.277590361 C4.44289157,0.0910843373 4.24048193,0 4.01493976,0 C3.80819277,0 3.61879518,0.0780722892 3.4539759,0.14746988 C3.32385542,0.200963855 3.20096386,0.253012048 3.10120482,0.253012048 C3.07084337,0.253012048 3.04481928,0.248674699 3.01879518,0.238554217 C2.6746988,0.112771084 2.41012048,0.0346987952 2.15421687,0.0346987952 C1.83036145,0.0346987952 1.55421687,0.164819277 1.28385542,0.442409639 C1.22746988,0.500240964 1.21879518,0.591325301 1.26361446,0.659277108 L2.05879518,1.86072289 C1.86216867,2.00674699 1.48626506,2.31325301 1.10891566,2.76578313 C0.792289157,3.1460241 0.539277108,3.55228916 0.357108434,3.97156627 C0.128674699,4.49927711 0.0130120482,5.05012048 0.0130120482,5.60819277 C0.0130120482,6.34987952 0.617349398,6.95421687 1.35903614,6.95421687 L4.64096386,6.95421687 C5.3826506,6.95421687 5.98698795,6.34987952 5.98698795,5.60819277 C5.98698795,5.05012048 5.8713253,4.49927711 5.64289157,3.97156627 Z M1.63373494,0.586987952 C1.80144578,0.442409639 1.96192771,0.378795181 2.15421687,0.378795181 C2.35951807,0.378795181 2.59084337,0.448192771 2.89879518,0.562409639 C2.96240964,0.585542169 3.03036145,0.597108434 3.09975904,0.597108434 C3.26891566,0.597108434 3.43084337,0.53060241 3.58554217,0.465542169 C3.73445783,0.403373494 3.87614458,0.344096386 4.01349398,0.344096386 C4.08,0.344096386 4.1739759,0.355662651 4.29253012,0.439518072 L3.59855422,1.72915663 L2.38987952,1.72915663 L1.63373494,0.586987952 Z M4.64096386,6.60722892 L1.35903614,6.60722892 C0.808192771,6.60722892 0.36,6.15903614 0.36,5.60819277 C0.36,4.68144578 0.699759036,3.80240964 1.36771084,2.99566265 C1.78987952,2.4853012 2.21927711,2.1686747 2.34939759,2.07614458 L3.64771084,2.07614458 C3.77927711,2.16722892 4.20722892,2.4853012 4.62939759,2.99566265 C5.29879518,3.80240964 5.63710843,4.68 5.63710843,5.60819277 C5.64,6.15903614 5.19180723,6.60722892 4.64096386,6.60722892 Z" id="Shape"></path>
                    </g>
                </g>
            </g>
        </g>
    </g>
</svg>