<?xml version="1.0" encoding="UTF-8"?>
<svg width="6px" height="8px" viewBox="0 0 6 8" version="1.1" xmlns="http://www.w3.org/2000/svg" xmlns:xlink="http://www.w3.org/1999/xlink">
    <!-- Generator: Sketch 53.1 (72631) - https://sketchapp.com -->
    <title>place@1x</title>
    <desc>Created with Sketch.</desc>
    <g id="Page-1" stroke="none" stroke-width="1" fill="none" fill-rule="evenodd">
        <g id="v" transform="translate(-133.000000, -146.000000)" fill="#A5A5A5" fill-rule="nonzero">
            <g id="Group-2-Copy" transform="translate(28.000000, 138.000000)">
                <g id="Patio-savassi" transform="translate(105.000000, 7.000000)">
                    <g id="place" transform="translate(0.000000, 1.000000)">
                        <path d="M5.461701,1.29611541 C4.89553492,0.472475497 3.99824706,0 3.00008728,0 C2.0019275,0 1.10463964,0.472475497 0.538473555,1.29611541 C-0.0249114574,2.11559126 -0.15499915,3.15306889 0.189796244,4.06967223 C0.282020755,4.31998189 0.428621082,4.56317187 0.624484101,4.79105966 L2.80267439,7.36279048 C2.85193708,7.421 2.92411468,7.45454545 3.00008728,7.45454545 C3.07605988,7.45454545 3.14823748,7.42101456 3.19750017,7.36279048 L5.3750821,4.79175852 C5.5718142,4.56256037 5.71822623,4.31963246 5.80968305,4.07133203 C6.15517371,3.15306889 6.02508602,2.11559126 5.461701,1.29611541 Z M5.32409572,3.88878303 C5.25356939,4.08035902 5.13842998,4.26976563 4.98206692,4.45195064 C4.98163237,4.45238743 4.98119783,4.45282422 4.9808502,4.45334837 L3.00008728,6.79189169 L1.01810764,4.45187784 C0.861831493,4.26985298 0.74669208,4.08046094 0.675470481,3.88705043 C0.390323358,3.12900178 0.498539052,2.2712049 0.965035457,1.59256463 C1.43299482,0.911754972 2.17478871,0.521294034 3.00008728,0.521294034 C3.82537136,0.521294034 4.56707834,0.911740412 5.03505219,1.59256463 C5.50163551,2.2712049 5.60993811,3.12900178 5.32409572,3.88878303 Z" id="Shape"></path>
                        <path d="M3.09090909,1.63636364 C2.28891557,1.63636364 1.63636364,2.28882852 1.63636364,3.09090909 C1.63636364,3.89298967 2.28882852,4.54545455 3.09090909,4.54545455 C3.89298967,4.54545455 4.54545455,3.89298967 4.54545455,3.09090909 C4.54545455,2.28891557 3.89290261,1.63636364 3.09090909,1.63636364 Z M3.09090909,4.02596366 C2.5753211,4.02596366 2.15584001,3.60648257 2.15584001,3.09089458 C2.15584001,2.57530659 2.5753211,2.1558255 3.09090909,2.1558255 C3.60649708,2.1558255 4.02597817,2.57530659 4.02597817,3.09089458 C4.02597817,3.60648257 3.60649708,4.02596366 3.09090909,4.02596366 Z" id="Shape"></path>
                    </g>
                </g>
            </g>
        </g>
    </g>
</svg>